ply
format ascii 1.0
comment Created by Blender 2.90.1 - www.blender.org
element vertex 435
property float x
property float y
property float z
property float nx
property float ny
property float nz
property float s
property float t
element face 145
property list uchar uint vertex_indices
end_header
0.483280 -0.776873 0.259509 0.682122 -0.529584 -0.504233 0.889211 0.597631
0.490050 -0.565287 0.046443 0.682122 -0.529584 -0.504233 0.838675 0.534056
0.633637 -0.566680 0.242150 0.682122 -0.529584 -0.504233 0.920247 0.524364
-0.490050 -0.565287 0.046443 -0.682122 -0.529584 -0.504233 0.833684 0.875630
-0.483280 -0.776873 0.259509 -0.682122 -0.529584 -0.504233 0.886992 0.814361
-0.633637 -0.566680 0.242150 -0.682122 -0.529584 -0.504233 0.914745 0.888933
0.483280 -0.776873 0.259509 0.440312 -0.644036 -0.625574 0.889211 0.597631
0.268041 -0.807140 0.139172 0.440312 -0.644036 -0.625574 0.857930 0.621256
0.490050 -0.565287 0.046443 0.440312 -0.644036 -0.625574 0.838675 0.534056
-0.268041 -0.807140 0.139172 -0.440312 -0.644036 -0.625574 0.856790 0.789371
-0.483280 -0.776873 0.259509 -0.440312 -0.644036 -0.625574 0.886992 0.814361
-0.490050 -0.565287 0.046443 -0.440312 -0.644036 -0.625574 0.833684 0.875630
0.268041 -0.807140 0.139172 -0.262471 -0.125872 -0.956695 0.857930 0.621256
0.104120 -0.639996 0.162153 -0.262471 -0.125872 -0.956695 0.820148 0.678020
0.490050 -0.565287 0.046443 -0.262471 -0.125872 -0.956695 0.838675 0.534056
-0.104120 -0.639996 0.162153 0.262471 -0.125872 -0.956695 0.821565 0.730986
-0.268041 -0.807140 0.139172 0.262471 -0.125872 -0.956695 0.856790 0.789371
-0.490050 -0.565287 0.046443 0.262471 -0.125872 -0.956695 0.833684 0.875630
0.268041 -0.807140 0.139172 -0.704666 -0.703634 0.091346 0.857930 0.621256
0.294953 -0.804906 0.363987 -0.704666 -0.703634 0.091346 0.896968 0.634616
0.104120 -0.639996 0.162153 -0.704666 -0.703634 0.091346 0.820148 0.678020
-0.294953 -0.804906 0.363987 0.704666 -0.703634 0.091346 0.896383 0.777757
-0.268041 -0.807140 0.139172 0.704666 -0.703634 0.091346 0.856790 0.789371
-0.104120 -0.639996 0.162153 0.704666 -0.703634 0.091346 0.821565 0.730986
-0.294953 -0.804906 0.363987 0.716088 -0.688561 0.114462 0.896383 0.777757
-0.104120 -0.639996 0.162153 0.716088 -0.688561 0.114462 0.821565 0.730986
-0.156250 -0.648438 0.437500 0.716088 -0.688561 0.114462 0.921180 0.713713
-0.294953 -0.804906 0.363987 -0.171742 -0.290080 0.941466 0.896383 0.777757
-0.156250 -0.648438 0.437500 -0.171742 -0.290080 0.941466 0.921180 0.713713
-0.464791 -0.544234 0.413323 -0.171742 -0.290080 0.941466 0.965927 0.821662
0.483280 -0.776873 0.259509 0.482690 -0.456003 0.747711 0.889211 0.597631
0.464791 -0.544234 0.413323 0.482690 -0.456003 0.747711 0.968392 0.593841
0.294953 -0.804906 0.363987 0.482690 -0.456003 0.747711 0.896968 0.634616
0.633637 -0.566680 0.242150 0.628047 -0.393835 0.671157 0.920247 0.524364
0.464791 -0.544234 0.413323 0.628047 -0.393835 0.671157 0.968392 0.593841
0.483280 -0.776873 0.259509 0.628047 -0.393835 0.671157 0.889211 0.597631
0.483280 -0.776873 0.259509 0.143256 -0.989659 -0.007316 0.889211 0.597631
0.294953 -0.804906 0.363987 0.143256 -0.989659 -0.007316 0.896968 0.634616
0.268041 -0.807140 0.139172 0.143256 -0.989659 -0.007316 0.857930 0.621256
-0.268041 -0.807140 0.139172 -0.143256 -0.989659 -0.007316 0.856790 0.789371
-0.294953 -0.804906 0.363987 -0.143256 -0.989659 -0.007316 0.896383 0.777757
-0.483280 -0.776873 0.259509 -0.143256 -0.989659 -0.007316 0.886992 0.814361
0.220840 -0.531800 -0.184282 0.695607 -0.302342 -0.651705 0.612025 0.160013
0.385872 -0.720572 0.079444 0.695607 -0.302342 -0.651705 0.613489 0.259611
0.112502 -0.787962 -0.181078 0.695607 -0.302342 -0.651705 0.540020 0.180767
-0.385872 -0.720572 0.079444 -0.585869 -0.439257 -0.681037 0.425348 0.261727
-0.220840 -0.531800 -0.184282 -0.585869 -0.439257 -0.681037 0.425409 0.160506
-0.095263 -0.797404 -0.121000 -0.585869 -0.439257 -0.681037 0.499235 0.192754
-0.249584 -0.701809 0.772373 -0.517625 -0.525824 0.674962 0.422324 0.408474
-0.804609 -0.630726 0.402104 -0.517625 -0.525824 0.674962 0.340533 0.320184
-0.252177 -0.851777 0.653553 -0.517625 -0.525824 0.674962 0.433429 0.380311
0.000000 -0.810030 0.371412 -0.697076 -0.452625 0.556071 0.524269 0.362085
0.252177 -0.851777 0.653553 -0.697076 -0.452625 0.556071 0.609625 0.376566
0.249584 -0.701809 0.772373 -0.697076 -0.452625 0.556071 0.621877 0.403869
0.316325 -0.797615 0.395908 0.070180 -0.886794 -0.456804 0.607494 0.325744
0.000000 -0.810030 0.371412 0.070180 -0.886794 -0.456804 0.524269 0.362085
0.195379 -0.758907 0.302183 0.070180 -0.886794 -0.456804 0.578937 0.310216
-0.316325 -0.797615 0.395908 -0.053377 -0.979808 -0.192685 0.433489 0.328791
0.000000 -0.810030 0.371412 -0.053377 -0.979808 -0.192685 0.524269 0.362085
-0.252177 -0.851777 0.653553 -0.053377 -0.979808 -0.192685 0.433429 0.380311
0.804609 -0.630726 0.402104 0.303838 -0.874974 -0.376965 0.697918 0.313719
0.316325 -0.797615 0.395908 0.303838 -0.874974 -0.376965 0.607494 0.325744
0.549752 -0.675759 0.301214 0.303838 -0.874974 -0.376965 0.650194 0.299150
-0.804609 -0.630726 0.402104 -0.322521 -0.939284 -0.117155 0.340533 0.320184
-0.316325 -0.797615 0.395908 -0.322521 -0.939284 -0.117155 0.433489 0.328791
-0.252177 -0.851777 0.653553 -0.322521 -0.939284 -0.117155 0.433429 0.380311
0.777299 -0.487706 0.064916 0.626032 -0.779599 -0.017579 0.706158 0.249587
0.549752 -0.675759 0.301214 0.626032 -0.779599 -0.017579 0.650194 0.299150
0.514487 -0.701133 0.170660 0.626032 -0.779599 -0.017579 0.639945 0.276946
-0.777299 -0.487706 0.064916 -0.308487 -0.866474 -0.392502 0.329606 0.253619
-0.549752 -0.675759 0.301214 -0.308487 -0.866474 -0.392502 0.389093 0.303207
-0.804609 -0.630726 0.402104 -0.308487 -0.866474 -0.392502 0.340533 0.320184
0.777299 -0.487706 0.064916 0.441733 -0.771123 -0.458520 0.706158 0.249587
0.514487 -0.701133 0.170660 0.441733 -0.771123 -0.458520 0.639945 0.276946
0.385872 -0.720572 0.079444 0.441733 -0.771123 -0.458520 0.613489 0.259611
0.112502 -0.787962 -0.181078 0.235423 -0.971883 0.004368 0.540020 0.180767
0.385872 -0.720572 0.079444 0.235423 -0.971883 0.004368 0.613489 0.259611
0.230417 -0.758004 0.129423 0.235423 -0.971883 0.004368 0.581787 0.271397
0.230417 -0.758004 0.129423 -0.020255 -0.994409 0.103637 0.581787 0.271397
-0.220310 -0.749188 0.125922 -0.020255 -0.994409 0.103637 0.460776 0.272000
0.112502 -0.787962 -0.181078 -0.020255 -0.994409 0.103637 0.540020 0.180767
0.195379 -0.758907 0.302183 -0.019483 -0.999768 -0.009177 0.578937 0.310216
-0.220310 -0.749188 0.125922 -0.019483 -0.999768 -0.009177 0.460776 0.272000
0.230417 -0.758004 0.129423 -0.019483 -0.999768 -0.009177 0.581787 0.271397
0.084845 -0.700743 -0.833496 0.012016 -0.607251 -0.794419 0.526241 0.076325
-0.076903 -0.698526 -0.837637 0.012016 -0.607251 -0.794419 0.513291 0.075369
0.360071 -0.572301 -0.927514 0.012016 -0.607251 -0.794419 0.550967 0.062144
0.112502 -0.787962 -0.181078 0.379617 -0.914736 -0.138380 0.540020 0.180767
0.084845 -0.700743 -0.833496 0.379617 -0.914736 -0.138380 0.526241 0.076325
0.360071 -0.572301 -0.927514 0.379617 -0.914736 -0.138380 0.550967 0.062144
-0.076903 -0.698526 -0.837637 -0.368150 -0.920270 -0.132547 0.513291 0.075369
-0.113284 -0.764057 -0.281606 -0.368150 -0.920270 -0.132547 0.498332 0.166146
-0.360071 -0.572301 -0.927514 -0.368150 -0.920270 -0.132547 0.486910 0.062083
0.000000 -0.796875 -0.187500 -1.000000 -0.000000 0.000000 0.519132 0.185382
0.000000 -0.742188 -0.140625 -1.000000 -0.000000 0.000000 0.519841 0.200843
0.000000 -0.750000 -0.195312 -1.000000 -0.000000 0.000000 0.517577 0.190607
0.000000 -0.796875 -0.187500 0.470787 -0.574159 0.669852 0.519132 0.185382
0.000000 -0.742188 -0.140625 0.470787 -0.574159 0.669852 0.519841 0.200843
-0.095263 -0.797404 -0.121000 0.470787 -0.574159 0.669852 0.499235 0.192754
0.000000 -0.742188 -0.140625 -0.465838 -0.786393 -0.405685 0.519841 0.200843
0.112502 -0.787962 -0.181078 -0.465838 -0.786393 -0.405685 0.540020 0.180767
-0.220310 -0.749188 0.125922 -0.465838 -0.786393 -0.405685 0.460776 0.272000
-0.095263 -0.797404 -0.121000 0.519183 -0.750216 0.409420 0.499235 0.192754
0.000000 -0.742188 -0.140625 0.519183 -0.750216 0.409420 0.519841 0.200843
-0.220310 -0.749188 0.125922 0.519183 -0.750216 0.409420 0.460776 0.272000
0.000000 -0.810030 0.371412 -0.818732 -0.157516 0.552147 0.524269 0.362085
0.249584 -0.701809 0.772373 -0.818732 -0.157516 0.552147 0.621877 0.403869
-0.000000 -0.635286 0.421263 -0.818732 -0.157516 0.552147 0.521405 0.433788
-0.249584 -0.701809 0.772373 0.818732 -0.157516 0.552147 0.422324 0.408474
0.000000 -0.810030 0.371412 0.818732 -0.157516 0.552147 0.524269 0.362085
-0.000000 -0.635286 0.421263 0.818732 -0.157516 0.552147 0.521405 0.433788
0.804609 -0.630726 0.402104 0.471801 0.402472 0.784487 0.697918 0.313719
0.462056 -0.462546 0.521838 0.471801 0.402472 0.784487 0.692106 0.388274
0.249584 -0.701809 0.772373 0.471801 0.402472 0.784487 0.621877 0.403869
-0.804609 -0.630726 0.402104 -0.344328 0.033357 0.938257 0.340533 0.320184
-0.462056 -0.462546 0.521838 -0.344328 0.033357 0.938257 0.350292 0.396229
-0.744705 -0.320177 0.413048 -0.344328 0.033357 0.938257 0.260676 0.315207
0.777299 -0.487706 0.064916 0.981904 0.189379 0.000799 0.706158 0.249587
0.744705 -0.320177 0.413048 0.981904 0.189379 0.000799 0.772723 0.305138
0.804609 -0.630726 0.402104 0.981904 0.189379 0.000799 0.697918 0.313719
0.174135 -0.295115 -0.443704 -0.088562 0.984851 -0.149079 0.391712 0.020395
-0.323265 -0.414335 -0.935812 -0.088562 0.984851 -0.149079 0.480458 0.052466
-0.204571 -0.323368 -0.405374 -0.088562 0.984851 -0.149079 0.390983 0.081009
0.360071 -0.572301 -0.927514 0.044863 0.142127 -0.988831 0.550967 0.062144
-0.323265 -0.414335 -0.935812 0.044863 0.142127 -0.988831 0.480458 0.052466
0.305719 -0.396160 -0.904663 0.044863 0.142127 -0.988831 0.559207 0.050412
0.360071 -0.572301 -0.927514 0.941398 0.263108 0.211055 0.550967 0.062144
0.305719 -0.396160 -0.904663 0.941398 0.263108 0.211055 0.559207 0.050412
0.174135 -0.295115 -0.443704 0.941398 0.263108 0.211055 0.646382 0.069241
-0.323265 -0.414335 -0.935812 -0.956938 0.232124 0.174322 0.480458 0.052466
-0.360071 -0.572301 -0.927514 -0.956938 0.232124 0.174322 0.486910 0.062083
-0.204571 -0.323368 -0.405374 -0.956938 0.232124 0.174322 0.390983 0.081009
-0.633789 0.410556 -0.057359 -0.331763 0.119604 -0.935750 0.188695 0.140323
0.000000 0.695104 -0.245693 -0.331763 0.119604 -0.935750 0.148899 0.029325
-0.663320 0.155380 -0.079504 -0.331763 0.119604 -0.935750 0.244590 0.163315
-0.204571 -0.323368 -0.405374 -0.112107 0.175855 -0.978012 0.390983 0.081009
0.000000 0.695104 -0.245693 -0.112107 0.175855 -0.978012 0.148899 0.029325
0.174135 -0.295115 -0.443704 -0.112107 0.175855 -0.978012 0.391712 0.020395
0.777299 -0.487706 0.064916 0.901995 0.063980 -0.426979 0.706158 0.249587
0.663320 0.155380 -0.079504 0.901995 0.063980 -0.426979 0.786307 0.164535
0.853487 0.184387 0.326571 0.901995 0.063980 -0.426979 0.825641 0.213419
-0.663320 0.155380 -0.079504 -0.901995 0.063980 -0.426979 0.244590 0.163315
-0.777299 -0.487706 0.064916 -0.901995 0.063980 -0.426979 0.329606 0.253619
-0.853487 0.184387 0.326571 -0.901995 0.063980 -0.426979 0.200600 0.217602
0.000000 0.914652 0.475522 -0.458582 0.850135 -0.258793 0.033476 0.160709
0.000000 0.695104 -0.245693 -0.458582 0.850135 -0.258793 0.148899 0.029325
-0.633789 0.410556 -0.057359 -0.458582 0.850135 -0.258793 0.188695 0.140323
0.347624 -0.189528 0.965523 0.280361 0.259569 0.924133 0.887453 0.343481
0.721550 0.373142 0.694041 0.280361 0.259569 0.924133 0.874212 0.241824
-0.182637 0.494337 0.934309 0.280361 0.259569 0.924133 0.999856 0.254640
0.000000 0.914652 0.475522 0.538073 0.810445 0.231639 0.981242 0.170124
0.721550 0.373142 0.694041 0.538073 0.810445 0.231639 0.874212 0.241824
0.822768 0.409608 0.331336 0.538073 0.810445 0.231639 0.838848 0.201675
0.347624 -0.189528 0.965523 0.767091 -0.218799 0.603073 0.887453 0.343481
0.744705 -0.320177 0.413048 0.767091 -0.218799 0.603073 0.772723 0.305138
0.721550 0.373142 0.694041 0.767091 -0.218799 0.603073 0.874212 0.241824
-0.744705 -0.320177 0.413048 -0.825973 -0.184447 0.532680 0.260676 0.315207
-0.468039 -0.151110 0.900587 -0.825973 -0.184447 0.532680 0.149702 0.344631
-0.868674 0.380238 0.463349 -0.825973 -0.184447 0.532680 0.168676 0.214982
0.462056 -0.462546 0.521838 0.185116 -0.814928 0.549203 0.788548 0.367747
0.347624 -0.189528 0.965523 0.185116 -0.814928 0.549203 0.887453 0.343481
-0.000000 -0.635286 0.421263 0.185116 -0.814928 0.549203 0.828202 0.453947
-0.462056 -0.462546 0.521838 -0.086585 -0.770174 0.631929 0.246525 0.386436
0.347624 -0.189528 0.965523 -0.086585 -0.770174 0.631929 0.087074 0.412341
-0.468039 -0.151110 0.900587 -0.086585 -0.770174 0.631929 0.149702 0.344631
-0.000000 -0.635286 0.421263 -0.396856 0.808140 0.435219 0.828202 0.453947
0.249584 -0.701809 0.772373 -0.396856 0.808140 0.435219 0.763104 0.431376
0.462056 -0.462546 0.521838 -0.396856 0.808140 0.435219 0.788548 0.367747
-0.249584 -0.701809 0.772373 0.396856 0.808140 0.435219 0.279233 0.458048
-0.000000 -0.635286 0.421263 0.396856 0.808140 0.435219 0.215430 0.477965
-0.462056 -0.462546 0.521838 0.396856 0.808140 0.435219 0.246525 0.386436
-0.777299 -0.487706 0.064916 -0.967990 -0.178445 0.176503 0.329606 0.253619
-0.744705 -0.320177 0.413048 -0.967990 -0.178445 0.176503 0.260676 0.315207
-0.853487 0.184387 0.326571 -0.967990 -0.178445 0.176503 0.200600 0.217602
0.853487 0.184387 0.326571 0.910417 -0.128911 0.393095 0.825641 0.213419
0.721550 0.373142 0.694041 0.910417 -0.128911 0.393095 0.874212 0.241824
0.744705 -0.320177 0.413048 0.910417 -0.128911 0.393095 0.772723 0.305138
-0.868674 0.380238 0.463349 -0.970971 -0.182924 0.154121 0.168676 0.214982
-0.853487 0.184387 0.326571 -0.970971 -0.182924 0.154121 0.200600 0.217602
-0.744705 -0.320177 0.413048 -0.970971 -0.182924 0.154121 0.260676 0.315207
0.721550 0.373142 0.694041 0.952463 0.124025 0.278268 0.874212 0.241824
0.853487 0.184387 0.326571 0.952463 0.124025 0.278268 0.825641 0.213419
0.822768 0.409608 0.331336 0.952463 0.124025 0.278268 0.838848 0.201675
0.777299 -0.487706 0.064916 0.631875 -0.061519 -0.772625 0.706158 0.249587
0.174135 -0.295115 -0.443704 0.631875 -0.061519 -0.772625 0.646382 0.069241
0.663320 0.155380 -0.079504 0.631875 -0.061519 -0.772625 0.786307 0.164535
-0.204571 -0.323368 -0.405374 -0.622064 -0.064973 -0.780266 0.390983 0.081009
-0.777299 -0.487706 0.064916 -0.622064 -0.064973 -0.780266 0.329606 0.253619
-0.663320 0.155380 -0.079504 -0.622064 -0.064973 -0.780266 0.244590 0.163315
0.822768 0.409608 0.331336 0.479279 0.846730 -0.230956 0.838848 0.201675
0.633789 0.410556 -0.057359 0.479279 0.846730 -0.230956 0.844162 0.143417
0.000000 0.914652 0.475522 0.479279 0.846730 -0.230956 0.981242 0.170124
-1.133470 0.364716 0.521483 -0.581065 -0.798898 -0.155324 0.194564 0.873402
-1.307210 0.503110 0.459626 -0.581065 -0.798898 -0.155324 0.109854 0.742370
-1.199393 0.449522 0.331910 -0.581065 -0.798898 -0.155324 0.199969 0.804492
1.199393 0.449522 0.331910 0.511288 -0.856362 -0.072307 0.555844 0.810037
1.192457 0.469975 0.040631 0.511288 -0.856362 -0.072307 0.545024 0.737699
1.307210 0.503110 0.459626 0.511288 -0.856362 -0.072307 0.647557 0.750915
0.972876 0.348509 0.294463 0.682464 -0.582761 -0.441171 0.477856 0.821579
1.133470 0.364716 0.521483 0.682464 -0.582761 -0.441171 0.559264 0.878730
0.853487 0.184387 0.326571 0.682464 -0.582761 -0.441171 0.402311 0.849094
-0.972876 0.348509 0.294463 -0.428219 -0.871019 -0.240739 0.277953 0.818264
-1.133470 0.364716 0.521483 -0.428219 -0.871019 -0.240739 0.194564 0.873402
-1.199393 0.449522 0.331910 -0.428219 -0.871019 -0.240739 0.199969 0.804492
0.850439 0.157222 -0.114563 0.141124 -0.682258 0.717362 0.448160 0.676763
0.834827 0.310858 0.034626 0.141124 -0.682258 0.717362 0.438040 0.735610
0.663320 0.155380 -0.079504 0.141124 -0.682258 0.717362 0.391311 0.645199
-0.834827 0.310858 0.034626 -0.141124 -0.682258 0.717362 0.320191 0.733036
-0.850439 0.157222 -0.114563 -0.141124 -0.682258 0.717362 0.311514 0.673795
-0.663320 0.155380 -0.079504 -0.141124 -0.682258 0.717362 0.369023 0.643553
0.853487 0.184387 0.326571 0.740208 -0.598430 -0.306553 0.402311 0.849094
0.834827 0.310858 0.034626 0.740208 -0.598430 -0.306553 0.438040 0.735610
0.972876 0.348509 0.294463 0.740208 -0.598430 -0.306553 0.477856 0.821579
-0.853487 0.184387 0.326571 -0.743062 -0.595451 -0.305445 0.353108 0.847951
-0.834827 0.310858 0.034626 -0.743062 -0.595451 -0.305445 0.320191 0.733036
-0.663320 0.155380 -0.079504 -0.743062 -0.595451 -0.305445 0.369023 0.643553
0.972876 0.348509 0.294463 0.416292 -0.906251 -0.073549 0.477856 0.821579
1.192457 0.469975 0.040631 0.416292 -0.906251 -0.073549 0.545024 0.737699
1.199393 0.449522 0.331910 0.416292 -0.906251 -0.073549 0.555844 0.810037
0.850439 0.157222 -0.114563 0.130079 0.322926 -0.937442 0.448160 0.676763
0.633789 0.410556 -0.057359 0.130079 0.322926 -0.937442 0.487205 0.611647
1.192457 0.469975 0.040631 0.130079 0.322926 -0.937442 0.545024 0.737699
-0.633789 0.410556 -0.057359 -0.130079 0.322926 -0.937442 0.274087 0.608281
-0.850439 0.157222 -0.114563 -0.130079 0.322926 -0.937442 0.311514 0.673795
-1.192457 0.469975 0.040631 -0.130079 0.322926 -0.937442 0.212927 0.732262
-1.133470 0.364716 0.521483 0.147761 0.552230 0.820493 0.044268 0.710074
-0.868674 0.380238 0.463349 0.147761 0.552230 0.820493 0.114925 0.578320
-1.307210 0.503110 0.459626 0.147761 0.552230 0.820493 0.109854 0.742370
1.192457 0.469975 0.040631 -0.182339 0.982843 -0.027786 0.545024 0.737699
0.822768 0.409608 0.331336 -0.182339 0.982843 -0.027786 0.649822 0.581235
1.307210 0.503110 0.459626 -0.182339 0.982843 -0.027786 0.647557 0.750915
-1.192457 0.469975 0.040631 0.124771 0.985653 0.113671 0.212927 0.732262
-0.868674 0.380238 0.463349 0.124771 0.985653 0.113671 0.114925 0.578320
-0.633789 0.410556 -0.057359 0.124771 0.985653 0.113671 0.274087 0.608281
-0.853487 0.184387 0.326571 0.209817 -0.548836 0.809170 0.051216 0.522659
-0.868674 0.380238 0.463349 0.209817 -0.548836 0.809170 0.114925 0.578320
-1.133470 0.364716 0.521483 0.209817 -0.548836 0.809170 0.044268 0.710074
0.663320 0.155380 -0.079504 -0.184390 0.063779 -0.980782 0.391311 0.645199
0.633789 0.410556 -0.057359 -0.184390 0.063779 -0.980782 0.487205 0.611647
0.850439 0.157222 -0.114563 -0.184390 0.063779 -0.980782 0.448160 0.676763
-0.633789 0.410556 -0.057359 0.184390 0.063779 -0.980782 0.274087 0.608281
-0.663320 0.155380 -0.079504 0.184390 0.063779 -0.980782 0.369023 0.643553
-0.850439 0.157222 -0.114563 0.184390 0.063779 -0.980782 0.311514 0.673795
0.294953 -0.804906 0.363987 -0.716088 -0.688561 0.114462 0.896968 0.634616
0.156250 -0.648438 0.437500 -0.716088 -0.688561 0.114462 0.918898 0.699697
0.104120 -0.639996 0.162153 -0.716088 -0.688561 0.114462 0.820148 0.678020
0.294953 -0.804906 0.363987 0.171742 -0.290080 0.941466 0.896968 0.634616
0.464791 -0.544234 0.413323 0.171742 -0.290080 0.941466 0.968392 0.593841
0.156250 -0.648438 0.437500 0.171742 -0.290080 0.941466 0.918898 0.699697
-0.483280 -0.776873 0.259509 -0.482690 -0.456003 0.747711 0.886992 0.814361
-0.294953 -0.804906 0.363987 -0.482690 -0.456003 0.747711 0.896383 0.777757
-0.464791 -0.544234 0.413323 -0.482690 -0.456003 0.747711 0.965927 0.821662
-0.633637 -0.566680 0.242150 -0.628047 -0.393835 0.671157 0.914745 0.888933
-0.483280 -0.776873 0.259509 -0.628047 -0.393835 0.671157 0.886992 0.814361
-0.464791 -0.544234 0.413323 -0.628047 -0.393835 0.671157 0.965927 0.821662
0.220840 -0.531800 -0.184282 0.905043 -0.380386 0.190272 0.612025 0.160013
0.112502 -0.787962 -0.181078 0.905043 -0.380386 0.190272 0.540020 0.180767
0.360071 -0.572301 -0.927514 0.905043 -0.380386 0.190272 0.550967 0.062144
-0.360071 -0.572301 -0.927514 -0.859230 -0.476223 0.186912 0.486910 0.062083
-0.113284 -0.764057 -0.281606 -0.859230 -0.476223 0.186912 0.498332 0.166146
-0.220840 -0.531800 -0.184282 -0.859230 -0.476223 0.186912 0.425409 0.160506
0.220840 -0.531800 -0.184282 0.355640 -0.640279 -0.680854 0.612025 0.160013
0.777299 -0.487706 0.064916 0.355640 -0.640279 -0.680854 0.706158 0.249587
0.385872 -0.720572 0.079444 0.355640 -0.640279 -0.680854 0.613489 0.259611
-0.385872 -0.720572 0.079444 -0.355640 -0.640279 -0.680854 0.425348 0.261727
-0.777299 -0.487706 0.064916 -0.355640 -0.640279 -0.680854 0.329606 0.253619
-0.220840 -0.531800 -0.184282 -0.355640 -0.640279 -0.680854 0.425409 0.160506
0.249584 -0.701809 0.772373 0.517625 -0.525824 0.674962 0.621877 0.403869
0.252177 -0.851777 0.653553 0.517625 -0.525824 0.674962 0.609625 0.376566
0.804609 -0.630726 0.402104 0.517625 -0.525824 0.674962 0.697918 0.313719
0.000000 -0.810030 0.371412 0.697076 -0.452625 0.556071 0.524269 0.362085
-0.249584 -0.701809 0.772373 0.697076 -0.452625 0.556071 0.422324 0.408474
-0.252177 -0.851777 0.653553 0.697076 -0.452625 0.556071 0.433429 0.380311
0.316325 -0.797615 0.395908 0.053377 -0.979808 -0.192685 0.607494 0.325744
0.252177 -0.851777 0.653553 0.053377 -0.979808 -0.192685 0.609625 0.376566
0.000000 -0.810030 0.371412 0.053377 -0.979808 -0.192685 0.524269 0.362085
-0.316325 -0.797615 0.395908 -0.070180 -0.886794 -0.456804 0.433489 0.328791
-0.195379 -0.758907 0.302183 -0.070180 -0.886794 -0.456804 0.461852 0.312096
0.000000 -0.810030 0.371412 -0.070180 -0.886794 -0.456804 0.524269 0.362085
0.804609 -0.630726 0.402104 0.322521 -0.939284 -0.117155 0.697918 0.313719
0.252177 -0.851777 0.653553 0.322521 -0.939284 -0.117155 0.609625 0.376566
0.316325 -0.797615 0.395908 0.322521 -0.939284 -0.117155 0.607494 0.325744
-0.804609 -0.630726 0.402104 -0.303838 -0.874974 -0.376965 0.340533 0.320184
-0.549752 -0.675759 0.301214 -0.303838 -0.874974 -0.376965 0.389093 0.303207
-0.316325 -0.797615 0.395908 -0.303838 -0.874974 -0.376965 0.433489 0.328791
0.777299 -0.487706 0.064916 0.308487 -0.866474 -0.392502 0.706158 0.249587
0.804609 -0.630726 0.402104 0.308487 -0.866474 -0.392502 0.697918 0.313719
0.549752 -0.675759 0.301214 0.308487 -0.866474 -0.392502 0.650194 0.299150
-0.777299 -0.487706 0.064916 -0.626032 -0.779599 -0.017579 0.329606 0.253619
-0.514487 -0.701133 0.170660 -0.626032 -0.779599 -0.017579 0.398853 0.280156
-0.549752 -0.675759 0.301214 -0.626032 -0.779599 -0.017579 0.389093 0.303207
-0.777299 -0.487706 0.064916 -0.441733 -0.771123 -0.458520 0.329606 0.253619
-0.385872 -0.720572 0.079444 -0.441733 -0.771123 -0.458520 0.425348 0.261727
-0.514487 -0.701133 0.170660 -0.441733 -0.771123 -0.458520 0.398853 0.280156
-0.095263 -0.797404 -0.121000 -0.194647 -0.976539 0.092112 0.499235 0.192754
-0.220310 -0.749188 0.125922 -0.194647 -0.976539 0.092112 0.460776 0.272000
-0.385872 -0.720572 0.079444 -0.194647 -0.976539 0.092112 0.425348 0.261727
0.195379 -0.758907 0.302183 0.122918 -0.931894 -0.341270 0.578937 0.310216
0.000000 -0.810030 0.371412 0.122918 -0.931894 -0.341270 0.524269 0.362085
-0.220310 -0.749188 0.125922 0.122918 -0.931894 -0.341270 0.460776 0.272000
-0.220310 -0.749188 0.125922 -0.246959 -0.968850 -0.018490 0.460776 0.272000
0.000000 -0.810030 0.371412 -0.246959 -0.968850 -0.018490 0.524269 0.362085
-0.195379 -0.758907 0.302183 -0.246959 -0.968850 -0.018490 0.461852 0.312096
0.112502 -0.787962 -0.181078 -0.046788 -0.990355 -0.130413 0.540020 0.180767
-0.113284 -0.764057 -0.281606 -0.046788 -0.990355 -0.130413 0.498332 0.166146
0.084845 -0.700743 -0.833496 -0.046788 -0.990355 -0.130413 0.526241 0.076325
-0.113284 -0.764057 -0.281606 -0.010597 -0.992990 -0.117722 0.498332 0.166146
-0.076903 -0.698526 -0.837637 -0.010597 -0.992990 -0.117722 0.513291 0.075369
0.084845 -0.700743 -0.833496 -0.010597 -0.992990 -0.117722 0.526241 0.076325
0.000000 -0.796875 -0.187500 0.008214 -0.650769 0.759231 0.519132 0.185382
0.112502 -0.787962 -0.181078 0.008214 -0.650769 0.759231 0.540020 0.180767
0.000000 -0.742188 -0.140625 0.008214 -0.650769 0.759231 0.519841 0.200843
-0.095263 -0.797404 -0.121000 -0.073111 0.992611 -0.096841 0.499235 0.192754
0.112502 -0.787962 -0.181078 -0.073111 0.992611 -0.096841 0.540020 0.180767
0.000000 -0.796875 -0.187500 -0.073111 0.992611 -0.096841 0.519132 0.185382
-0.113284 -0.764057 -0.281606 -0.013843 -0.979332 -0.201786 0.498332 0.166146
0.112502 -0.787962 -0.181078 -0.013843 -0.979332 -0.201786 0.540020 0.180767
-0.095263 -0.797404 -0.121000 -0.013843 -0.979332 -0.201786 0.499235 0.192754
-0.113284 -0.764057 -0.281606 -0.905194 -0.424788 0.013372 0.498332 0.166146
-0.095263 -0.797404 -0.121000 -0.905194 -0.424788 0.013372 0.499235 0.192754
-0.220840 -0.531800 -0.184282 -0.905194 -0.424788 0.013372 0.425409 0.160506
0.804609 -0.630726 0.402104 0.344328 0.033357 0.938257 0.697918 0.313719
0.744705 -0.320177 0.413048 0.344328 0.033357 0.938257 0.772723 0.305138
0.462056 -0.462546 0.521838 0.344328 0.033357 0.938257 0.692106 0.388274
-0.804609 -0.630726 0.402104 -0.471802 0.402472 0.784487 0.340533 0.320184
-0.249584 -0.701809 0.772373 -0.471802 0.402472 0.784487 0.422324 0.408474
-0.462056 -0.462546 0.521838 -0.471802 0.402472 0.784487 0.350292 0.396229
-0.777299 -0.487706 0.064916 -0.981904 0.189379 0.000799 0.329606 0.253619
-0.804609 -0.630726 0.402104 -0.981904 0.189379 0.000799 0.340533 0.320184
-0.744705 -0.320177 0.413048 -0.981904 0.189379 0.000799 0.260676 0.315207
0.174135 -0.295115 -0.443704 -0.017355 0.975612 -0.218814 0.391712 0.020395
0.305719 -0.396160 -0.904663 -0.017355 0.975612 -0.218814 0.470636 0.000144
-0.323265 -0.414335 -0.935812 -0.017355 0.975612 -0.218814 0.480458 0.052466
0.360071 -0.572301 -0.927514 -0.077872 -0.385170 -0.919554 0.550967 0.062144
-0.076903 -0.698526 -0.837637 -0.077872 -0.385170 -0.919554 0.513291 0.075369
-0.323265 -0.414335 -0.935812 -0.077872 -0.385170 -0.919554 0.480458 0.052466
-0.323265 -0.414335 -0.935812 0.255786 -0.110053 -0.960449 0.480458 0.052466
-0.076903 -0.698526 -0.837637 0.255786 -0.110053 -0.960449 0.513291 0.075369
-0.360071 -0.572301 -0.927514 0.255786 -0.110053 -0.960449 0.486910 0.062083
0.220840 -0.531800 -0.184282 0.923657 0.350958 0.153906 0.612025 0.160013
0.360071 -0.572301 -0.927514 0.923657 0.350958 0.153906 0.550967 0.062144
0.174135 -0.295115 -0.443704 0.923657 0.350958 0.153906 0.646382 0.069241
-0.204571 -0.323368 -0.405374 -0.954152 0.249644 0.165140 0.390983 0.081009
-0.360071 -0.572301 -0.927514 -0.954152 0.249644 0.165140 0.486910 0.062083
-0.220840 -0.531800 -0.184282 -0.954152 0.249644 0.165140 0.425409 0.160506
0.633789 0.410556 -0.057359 0.331763 0.119604 -0.935750 0.844162 0.143417
0.663320 0.155380 -0.079504 0.331763 0.119604 -0.935750 0.786307 0.164535
0.000000 0.695104 -0.245693 0.331763 0.119604 -0.935750 0.883305 0.043383
0.000000 0.695104 -0.245693 0.420758 0.248460 -0.872485 0.883305 0.043383
0.663320 0.155380 -0.079504 0.420758 0.248460 -0.872485 0.786307 0.164535
0.174135 -0.295115 -0.443704 0.420758 0.248460 -0.872485 0.646382 0.069241
-0.204571 -0.323368 -0.405374 -0.401769 0.220066 -0.888905 0.390983 0.081009
-0.663320 0.155380 -0.079504 -0.401769 0.220066 -0.888905 0.244590 0.163315
0.000000 0.695104 -0.245693 -0.401769 0.220066 -0.888905 0.148899 0.029325
0.000000 0.914652 0.475522 0.458582 0.850135 -0.258793 0.981242 0.170124
0.633789 0.410556 -0.057359 0.458582 0.850135 -0.258793 0.844162 0.143417
0.000000 0.695104 -0.245693 0.458582 0.850135 -0.258793 0.883305 0.043383
-0.182637 0.494337 0.934309 -0.080129 -0.016641 0.996646 0.038388 0.262153
-0.468039 -0.151110 0.900587 -0.080129 -0.016641 0.996646 0.149702 0.344631
0.347624 -0.189528 0.965523 -0.080129 -0.016641 0.996646 0.087074 0.412341
-0.182637 0.494337 0.934309 0.275158 0.651819 0.706696 0.999856 0.254640
0.721550 0.373142 0.694041 0.275158 0.651819 0.706696 0.874212 0.241824
0.000000 0.914652 0.475522 0.275158 0.651819 0.706696 0.981242 0.170124
-0.868674 0.380238 0.463349 -0.460977 0.738083 0.492680 0.168676 0.214982
-0.182637 0.494337 0.934309 -0.460977 0.738083 0.492680 0.038388 0.262153
0.000000 0.914652 0.475522 -0.460977 0.738083 0.492680 0.033476 0.160709
-0.868674 0.380238 0.463349 -0.576798 0.213855 0.788397 0.168676 0.214982
-0.468039 -0.151110 0.900587 -0.576798 0.213855 0.788397 0.149702 0.344631
-0.182637 0.494337 0.934309 -0.576798 0.213855 0.788397 0.038388 0.262153
0.347624 -0.189528 0.965523 0.535120 -0.650875 0.538525 0.887453 0.343481
0.462056 -0.462546 0.521838 0.535120 -0.650875 0.538525 0.788548 0.367747
0.744705 -0.320177 0.413048 0.535120 -0.650875 0.538525 0.772723 0.305138
-0.744705 -0.320177 0.413048 -0.535257 -0.656570 0.531428 0.260676 0.315207
-0.462056 -0.462546 0.521838 -0.535257 -0.656570 0.531428 0.246525 0.386436
-0.468039 -0.151110 0.900587 -0.535257 -0.656570 0.531428 0.149702 0.344631
-0.462056 -0.462546 0.521838 -0.124833 -0.727021 0.675172 0.246525 0.386436
-0.000000 -0.635286 0.421263 -0.124833 -0.727021 0.675172 0.215430 0.477965
0.347624 -0.189528 0.965523 -0.124833 -0.727021 0.675172 0.087074 0.412341
0.777299 -0.487706 0.064916 0.967990 -0.178445 0.176503 0.706158 0.249587
0.853487 0.184387 0.326571 0.967990 -0.178445 0.176503 0.825641 0.213419
0.744705 -0.320177 0.413048 0.967990 -0.178445 0.176503 0.772723 0.305138
0.777299 -0.487706 0.064916 0.350065 -0.659761 -0.664959 0.706158 0.249587
0.220840 -0.531800 -0.184282 0.350065 -0.659761 -0.664959 0.612025 0.160013
0.174135 -0.295115 -0.443704 0.350065 -0.659761 -0.664959 0.646382 0.069241
-0.204571 -0.323368 -0.405374 -0.347141 -0.669500 -0.656706 0.390983 0.081009
-0.220840 -0.531800 -0.184282 -0.347141 -0.669500 -0.656706 0.425409 0.160506
-0.777299 -0.487706 0.064916 -0.347141 -0.669500 -0.656706 0.329606 0.253619
-0.868674 0.380238 0.463349 -0.513307 0.838527 -0.182724 0.168676 0.214982
0.000000 0.914652 0.475522 -0.513307 0.838527 -0.182724 0.033476 0.160709
-0.633789 0.410556 -0.057359 -0.513307 0.838527 -0.182724 0.188695 0.140323
1.133470 0.364716 0.521483 0.581065 -0.798898 -0.155324 0.559264 0.878730
1.199393 0.449522 0.331910 0.581065 -0.798898 -0.155324 0.555844 0.810037
1.307210 0.503110 0.459626 0.581065 -0.798898 -0.155324 0.647557 0.750915
-1.199393 0.449522 0.331910 -0.511288 -0.856362 -0.072307 0.199969 0.804492
-1.307210 0.503110 0.459626 -0.511288 -0.856362 -0.072307 0.109854 0.742370
-1.192457 0.469975 0.040631 -0.511288 -0.856362 -0.072307 0.212927 0.732262
0.850439 0.157222 -0.114563 0.279254 -0.654177 0.702900 0.448160 0.676763
1.192457 0.469975 0.040631 0.279254 -0.654177 0.702900 0.545024 0.737699
0.834827 0.310858 0.034626 0.279254 -0.654177 0.702900 0.438040 0.735610
-0.834827 0.310858 0.034626 -0.279254 -0.654177 0.702900 0.320191 0.733036
-1.192457 0.469975 0.040631 -0.279254 -0.654177 0.702900 0.212927 0.732262
-0.850439 0.157222 -0.114563 -0.279254 -0.654177 0.702900 0.311514 0.673795
0.972876 0.348509 0.294463 0.428219 -0.871019 -0.240739 0.477856 0.821579
1.199393 0.449522 0.331910 0.428219 -0.871019 -0.240739 0.555844 0.810037
1.133470 0.364716 0.521483 0.428219 -0.871019 -0.240739 0.559264 0.878730
-0.972876 0.348509 0.294463 -0.682464 -0.582761 -0.441171 0.277953 0.818264
-0.853487 0.184387 0.326571 -0.682464 -0.582761 -0.441171 0.353108 0.847951
-1.133470 0.364716 0.521483 -0.682464 -0.582761 -0.441171 0.194564 0.873402
0.853487 0.184387 0.326571 0.743062 -0.595451 -0.305445 0.402311 0.849094
0.663320 0.155380 -0.079504 0.743062 -0.595451 -0.305445 0.391311 0.645199
0.834827 0.310858 0.034626 0.743062 -0.595451 -0.305445 0.438040 0.735610
-0.853487 0.184387 0.326571 -0.740208 -0.598430 -0.306553 0.353108 0.847951
-0.972876 0.348509 0.294463 -0.740208 -0.598430 -0.306553 0.277953 0.818264
-0.834827 0.310858 0.034626 -0.740208 -0.598430 -0.306553 0.320191 0.733036
1.192457 0.469975 0.040631 0.406242 -0.909898 -0.083987 0.545024 0.737699
0.972876 0.348509 0.294463 0.406242 -0.909898 -0.083987 0.477856 0.821579
0.834827 0.310858 0.034626 0.406242 -0.909898 -0.083987 0.438040 0.735610
-0.834827 0.310858 0.034626 -0.406242 -0.909898 -0.083987 0.320191 0.733036
-0.972876 0.348509 0.294463 -0.406242 -0.909898 -0.083987 0.277953 0.818264
-1.192457 0.469975 0.040631 -0.406242 -0.909898 -0.083987 0.212927 0.732262
-0.972876 0.348509 0.294463 -0.416292 -0.906251 -0.073549 0.277953 0.818264
-1.199393 0.449522 0.331910 -0.416292 -0.906251 -0.073549 0.199969 0.804492
-1.192457 0.469975 0.040631 -0.416292 -0.906251 -0.073549 0.212927 0.732262
1.133470 0.364716 0.521483 -0.307351 0.682323 0.663303 0.716198 0.720783
1.307210 0.503110 0.459626 -0.307351 0.682323 0.663303 0.647557 0.750915
0.822768 0.409608 0.331336 -0.307351 0.682323 0.663303 0.649822 0.581235
1.192457 0.469975 0.040631 -0.115755 0.991542 0.058696 0.545024 0.737699
0.633789 0.410556 -0.057359 -0.115755 0.991542 0.058696 0.487205 0.611647
0.822768 0.409608 0.331336 -0.115755 0.991542 0.058696 0.649822 0.581235
-1.192457 0.469975 0.040631 0.269812 0.962910 -0.002253 0.212927 0.732262
-1.307210 0.503110 0.459626 0.269812 0.962910 -0.002253 0.109854 0.742370
-0.868674 0.380238 0.463349 0.269812 0.962910 -0.002253 0.114925 0.578320
0.853487 0.184387 0.326571 -0.529309 -0.090042 0.843638 0.825641 0.213419
1.133470 0.364716 0.521483 -0.529309 -0.090042 0.843638 0.834578 0.206879
0.822768 0.409608 0.331336 -0.529309 -0.090042 0.843638 0.838848 0.201675
3 0 1 2
3 3 4 5
3 6 7 8
3 9 10 11
3 12 13 14
3 15 16 17
3 18 19 20
3 21 22 23
3 24 25 26
3 27 28 29
3 30 31 32
3 33 34 35
3 36 37 38
3 39 40 41
3 42 43 44
3 45 46 47
3 48 49 50
3 51 52 53
3 54 55 56
3 57 58 59
3 60 61 62
3 63 64 65
3 66 67 68
3 69 70 71
3 72 73 74
3 75 76 77
3 78 79 80
3 81 82 83
3 84 85 86
3 87 88 89
3 90 91 92
3 93 94 95
3 96 97 98
3 99 100 101
3 102 103 104
3 105 106 107
3 108 109 110
3 111 112 113
3 114 115 116
3 117 118 119
3 120 121 122
3 123 124 125
3 126 127 128
3 129 130 131
3 132 133 134
3 135 136 137
3 138 139 140
3 141 142 143
3 144 145 146
3 147 148 149
3 150 151 152
3 153 154 155
3 156 157 158
3 159 160 161
3 162 163 164
3 165 166 167
3 168 169 170
3 171 172 173
3 174 175 176
3 177 178 179
3 180 181 182
3 183 184 185
3 186 187 188
3 189 190 191
3 192 193 194
3 195 196 197
3 198 199 200
3 201 202 203
3 204 205 206
3 207 208 209
3 210 211 212
3 213 214 215
3 216 217 218
3 219 220 221
3 222 223 224
3 225 226 227
3 228 229 230
3 231 232 233
3 234 235 236
3 237 238 239
3 240 241 242
3 243 244 245
3 246 247 248
3 249 250 251
3 252 253 254
3 255 256 257
3 258 259 260
3 261 262 263
3 264 265 266
3 267 268 269
3 270 271 272
3 273 274 275
3 276 277 278
3 279 280 281
3 282 283 284
3 285 286 287
3 288 289 290
3 291 292 293
3 294 295 296
3 297 298 299
3 300 301 302
3 303 304 305
3 306 307 308
3 309 310 311
3 312 313 314
3 315 316 317
3 318 319 320
3 321 322 323
3 324 325 326
3 327 328 329
3 330 331 332
3 333 334 335
3 336 337 338
3 339 340 341
3 342 343 344
3 345 346 347
3 348 349 350
3 351 352 353
3 354 355 356
3 357 358 359
3 360 361 362
3 363 364 365
3 366 367 368
3 369 370 371
3 372 373 374
3 375 376 377
3 378 379 380
3 381 382 383
3 384 385 386
3 387 388 389
3 390 391 392
3 393 394 395
3 396 397 398
3 399 400 401
3 402 403 404
3 405 406 407
3 408 409 410
3 411 412 413
3 414 415 416
3 417 418 419
3 420 421 422
3 423 424 425
3 426 427 428
3 429 430 431
3 432 433 434
