ply
format ascii 1.0
comment Created by Blender 2.90.1 - www.blender.org
element vertex 24
property float x
property float y
property float z
property float nx
property float ny
property float nz
property float s
property float t
element face 12
property list uchar uint vertex_indices
end_header
-1.000000 1.000000 1.000000 0.000000 0.000000 1.000000 0.946476 0.979423
1.000000 -1.000000 1.000000 0.000000 0.000000 1.000000 0.758976 0.646089
1.000000 1.000000 1.000000 0.000000 0.000000 1.000000 0.946476 0.646089
1.000000 -1.000000 1.000000 0.000000 -1.000000 0.000000 0.659409 0.584357
-1.000000 -1.000000 -1.000000 0.000000 -1.000000 0.000000 0.471909 0.251024
1.000000 -1.000000 -1.000000 0.000000 -1.000000 0.000000 0.659409 0.251024
-1.000000 -1.000000 1.000000 -1.000000 0.000000 0.000000 0.661063 0.583202
-1.000000 1.000000 -1.000000 -1.000000 0.000000 0.000000 0.473563 0.249869
-1.000000 -1.000000 -1.000000 -1.000000 0.000000 0.000000 0.661063 0.249869
1.000000 1.000000 -1.000000 0.000000 0.000000 -1.000000 0.758622 0.330394
-1.000000 -1.000000 -1.000000 0.000000 0.000000 -1.000000 0.946122 -0.002940
-1.000000 1.000000 -1.000000 0.000000 0.000000 -1.000000 0.946122 0.330394
1.000000 1.000000 1.000000 1.000000 0.000000 -0.000000 0.202057 0.677848
1.000000 -1.000000 -1.000000 1.000000 0.000000 -0.000000 0.014557 0.344514
1.000000 1.000000 -1.000000 1.000000 0.000000 -0.000000 0.202057 0.344514
-1.000000 1.000000 1.000000 0.000000 1.000000 -0.000000 0.389557 0.674908
1.000000 1.000000 -1.000000 0.000000 1.000000 -0.000000 0.202057 0.344514
-1.000000 1.000000 -1.000000 0.000000 1.000000 -0.000000 0.389557 0.341575
-1.000000 -1.000000 1.000000 0.000000 -0.000000 1.000000 0.758976 0.979423
-1.000000 -1.000000 1.000000 0.000000 -1.000000 0.000000 0.471909 0.584357
-1.000000 1.000000 1.000000 -1.000000 0.000000 0.000000 0.473563 0.583202
1.000000 -1.000000 -1.000000 0.000000 0.000000 -1.000000 0.758622 -0.002940
1.000000 -1.000000 1.000000 1.000000 0.000000 0.000000 0.014557 0.677848
1.000000 1.000000 1.000000 0.000000 1.000000 -0.000000 0.202057 0.677848
3 0 1 2
3 3 4 5
3 6 7 8
3 9 10 11
3 12 13 14
3 15 16 17
3 0 18 1
3 3 19 4
3 6 20 7
3 9 21 10
3 12 22 13
3 15 23 16
